<?xml version="1.0" encoding="utf-8"?>
<!-- Generator: Adobe Illustrator 24.3.0, SVG Export Plug-In . SVG Version: 6.00 Build 0)  -->
<svg version="1.1" id="Слой_1" xmlns="http://www.w3.org/2000/svg" xmlns:xlink="http://www.w3.org/1999/xlink" x="0px" y="0px"
	 viewBox="0 0 373.8 230.7" style="enable-background:new 0 0 373.8 230.7;" xml:space="preserve">
<style type="text/css">
	.st0{fill:#E5AC85;}
	.st1{fill:#00723B;}
	.st2{fill:#FFFFFF;}
	.st3{fill:#C48255;}
</style>
<polygon class="st0" points="253,84.4 253,78.2 199,109.4 145.1,78.2 145.1,104.9 145.1,104.9 145.1,111.1 199,142.3 253,111.1 
	253,84.4 "/>
<polygon class="st1" points="199,4.8 118.2,51.5 128.5,57.5 128.5,95.3 135.5,99.4 135.5,61.5 199,98.3 279.8,51.5 "/>
<g>
	<path class="st2" d="M166.1,53.5c-5.2-3-7.8-3.2-9.6-2.1c-1.8,1.1-1.4,2.6,2.7,5l3.7,2.2l-5.5,3.2l-3.1-1.8
		c-9.3-5.4-11.6-10.1-5.9-13.4c5.7-3.3,13.9-1.9,23.2,3.4l1.5,0.9c6.2,3.6,8.8,6.6,7.9,9.2c4.9-0.5,10.3,1.3,16.2,4.7l4.6,2.6
		c9.3,5.4,11.6,10.1,6,13.4c-5.7,3.3-13.9,1.9-23.2-3.5l-4.8-2.8l5.5-3.2l5.4,3.1c4.1,2.4,6.9,2.6,8.7,1.6c1.8-1.1,1.6-2.5-3.6-5.5
		l-4.6-2.6c-5.4-3.1-8.5-3.6-11.2-2.1L178,67l-8.3-4.8l2.3-1.3c2.2-1.2,2-2.9-2.7-5.6L166.1,53.5z"/>
	<path class="st2" d="M215.7,65.3l8.8,5.1l-5.6,3.2l-8.8-5.1L215.7,65.3z"/>
	<path class="st2" d="M219.3,51.6l-28.7-28.7l6.3-3.6l39.1,22.6l2.7-1.6l8.3,4.8l-2.7,1.6l10.5,6.1l-5.7,3.3l-10.5-6.1l-11.1,6.4
		L219.3,51.6z M230.5,45.1l-21.8-12.6l16,15.9L230.5,45.1z"/>
	<polygon class="st2" points="175.4,35.7 175.4,35.7 173.9,41 173.4,42.5 180.6,46.6 182.3,40.7 229,67.7 234.8,64.4 186.9,36.7 
		176.8,30.9 	"/>
</g>
<polygon class="st3" points="253,99.1 199,130.3 145.1,99.1 145.1,102.7 199,133.9 253,102.7 "/>
<polygon class="st3" points="253,87.7 199,118.9 145.1,87.7 145.1,91.3 199,122.5 253,91.3 "/>
<g>
	<path class="st1" d="M79.7,196.9h6.1c3.2,0,6-0.5,8.3-1.6c2.3-1.1,4.1-2.6,5.4-4.5c1.3-1.9,1.9-4.2,1.9-6.9c0-2.7-0.6-5-1.9-7
		c-1.3-2-3.1-3.5-5.4-4.5c-2.3-1-5.1-1.6-8.3-1.6H69.7v35.2h10V196.9z M79.7,178.8h5.5c2.1,0,3.6,0.5,4.7,1.4c1,0.9,1.5,2.2,1.5,3.8
		c0,1.6-0.5,2.9-1.5,3.8c-1,0.9-2.6,1.4-4.7,1.4h-5.5V178.8z"/>
	<path class="st1" d="M111,201.6c1.8,1.7,3.8,2.9,6.2,3.8c2.4,0.9,5,1.4,7.8,1.4c2.8,0,5.5-0.5,7.8-1.4c2.4-0.9,4.4-2.2,6.2-3.8
		c1.7-1.6,3.1-3.6,4.1-5.8c1-2.2,1.5-4.7,1.5-7.3c0-2.6-0.5-5.1-1.5-7.3c-1-2.2-2.4-4.1-4.1-5.8c-1.7-1.7-3.8-2.9-6.2-3.8
		c-2.4-0.9-5-1.4-7.8-1.4c-2.8,0-5.4,0.5-7.8,1.4c-2.4,0.9-4.5,2.2-6.2,3.8c-1.8,1.7-3.1,3.6-4.1,5.8c-1,2.2-1.5,4.6-1.5,7.3
		c0,2.6,0.5,5.1,1.5,7.3C107.9,198,109.2,200,111,201.6z M116.2,184.4c0.5-1.2,1.2-2.3,2-3.2s1.9-1.6,3-2c1.2-0.5,2.4-0.7,3.7-0.7
		c1.3,0,2.6,0.2,3.7,0.7c1.2,0.5,2.2,1.1,3,2c0.9,0.9,1.5,1.9,2,3.2c0.5,1.2,0.7,2.6,0.7,4.1c0,1.5-0.2,2.9-0.7,4.1
		c-0.5,1.2-1.2,2.3-2,3.2c-0.9,0.9-1.9,1.6-3,2c-1.2,0.5-2.4,0.7-3.7,0.7c-1.3,0-2.6-0.2-3.7-0.7c-1.2-0.5-2.2-1.1-3-2s-1.5-2-2-3.2
		c-0.5-1.2-0.7-2.6-0.7-4.1C115.5,187,115.7,185.6,116.2,184.4z"/>
	<path class="st1" d="M25.2,216l6.4-49.6h2.2h7.6c-0.5,3.7-1.2,7.1-1.4,10.5c-0.5,6.8-1.4,13.6-1.1,20.4c0.3,7,5.1,10,12.6,8.5
		c6.2-1.3,10.5-8,10.2-15.6H60c-0.2,2.5-2.1,8.4-5.3,7.7c-2.3-0.5-3.1-2.5-3.3-3.9c0-0.2-0.1-0.4-0.1-0.6
		c-1.2-7.7,0.5-27.2,0.5-27.2h12.2v-12.6H22.1c-0.3,0-0.6,0-0.9,0c-2.8,0-5.2,0.9-7.3,2.9c-3.9,3.9-6,8.6-7.3,14h2.2
		c0.6-1,1.3-1.7,2-2.3c0.2-0.2,0.5-0.4,0.7-0.5c1.4-0.9,3.1-1.3,4.8-1.3h5.2l-7.7,59.5h10.1l0-0.1h210.7V216H25.2z"/>
</g>
<g>
	<path class="st0" d="M184.8,174.6c-2.4-0.9-5.3-1.5-8.6-1.7v-3.6h-9.1v3.6c-3.2,0.2-6,0.8-8.4,1.7c-3.2,1.2-5.7,3-7.4,5.3
		c-1.7,2.3-2.5,5.2-2.5,8.5c0,3.3,0.8,6.1,2.5,8.5c1.7,2.3,4.1,4.1,7.3,5.3c2.4,0.9,5.2,1.5,8.5,1.7v3.9h9.1v-3.9
		c3.4-0.2,6.4-0.8,8.8-1.7c3.1-1.2,5.5-3,7.1-5.3c1.6-2.3,2.4-5.1,2.4-8.4c0-3.3-0.8-6.1-2.5-8.5C190.4,177.6,188,175.9,184.8,174.6
		z M164.3,195.6c-1.9-0.5-3.4-1.4-4.4-2.6c-1-1.2-1.5-2.7-1.5-4.6c0-1.9,0.5-3.4,1.4-4.6c0.9-1.2,2.3-2,4.2-2.5
		c0.9-0.3,1.9-0.4,3.1-0.6v15.4C166.1,196,165.1,195.8,164.3,195.6z M183.5,192.9c-0.9,1.2-2.2,2-4.1,2.6c-0.9,0.3-2,0.5-3.3,0.7
		v-15.5c1.2,0.1,2.3,0.3,3.2,0.6c1.8,0.6,3.2,1.4,4.1,2.5c0.9,1.1,1.4,2.6,1.4,4.5C184.8,190.2,184.4,191.7,183.5,192.9z"/>
	<path class="st0" d="M245.8,191.4c-1-1.4-2.3-2.5-4-3.3c-0.3-0.1-0.5-0.2-0.8-0.3c1.4-0.7,2.6-1.7,3.5-3c0.9-1.3,1.4-2.8,1.4-4.5
		c0-1.9-0.6-3.6-1.8-5c-1.2-1.4-2.8-2.5-4.8-3.4c-2-0.9-4.3-1.4-6.7-1.6c-2.5-0.2-5-0.1-7.6,0.3c-2.6,0.4-5.1,1.2-7.5,2.4l2.9,7.4
		c1.3-0.7,2.7-1.3,4.2-1.7c1.4-0.4,2.8-0.7,4.2-0.7c1.3-0.1,2.5,0,3.6,0.2c1.1,0.2,1.9,0.6,2.6,1.1c0.6,0.5,1,1.2,1,2.1
		c0,0.9-0.4,1.6-1.1,2.2c-0.7,0.5-1.8,0.8-3.1,0.8h-8.2v7.3h9c1.4,0,2.6,0.2,3.5,0.7c0.9,0.5,1.3,1.3,1.3,2.3c0,1-0.4,1.8-1.1,2.4
		c-0.7,0.6-1.7,1-3,1.3c-1.3,0.3-2.7,0.4-4.2,0.3c-1.5-0.1-3.1-0.3-4.8-0.7c-1.6-0.4-3.2-1-4.7-1.8l-3,7c2.2,1.1,4.5,1.9,6.9,2.5
		c2.4,0.6,4.7,0.9,7,0.9c2.3,0,4.5-0.2,6.5-0.7c2-0.5,3.8-1.1,5.4-2c1.6-0.9,2.8-2,3.7-3.3c0.9-1.3,1.3-2.8,1.3-4.5
		C247.2,194.4,246.7,192.8,245.8,191.4z"/>
	<polygon class="st0" points="210.7,191.6 210.7,170.9 200.9,170.9 200.9,206.1 210.3,206.1 210.7,205.6 	"/>
</g>
<g>
	<path class="st1" d="M315.5,170.9L300,206.1h10.2l2.7-6.8h14.9l2.7,6.8h10.4l-15.6-35.2H315.5z M315.8,192l4.5-11.2l4.5,11.2H315.8
		z"/>
	<polygon class="st1" points="367.2,151.3 217.4,151.3 217.4,161.1 346.7,161.1 346.7,206.1 356.5,206.1 356.5,161.1 367.2,161.1 	
		"/>
	<polygon class="st1" points="294.7,170.9 286.5,170.9 274.4,191.3 262.1,170.9 253.9,170.9 253.9,206.1 263,206.1 263,187.9 
		272.1,202.7 276.5,202.7 285.5,187.5 285.6,206.1 294.7,206.1 	"/>
</g>
</svg>
