<?xml version="1.0" encoding="utf-8"?>
<!-- Generator: Adobe Illustrator 24.3.0, SVG Export Plug-In . SVG Version: 6.00 Build 0)  -->
<svg version="1.1" id="Слой_1" xmlns="http://www.w3.org/2000/svg" xmlns:xlink="http://www.w3.org/1999/xlink" x="0px" y="0px"
	 viewBox="0 0 398.3 234.2" style="enable-background:new 0 0 398.3 234.2;" xml:space="preserve">
<style type="text/css">
	.st0{fill:#E5AC85;}
	.st1{fill:#00723B;}
	.st2{fill:#FFFFFF;}
	.st3{fill:#C48255;}
</style>
<polygon class="st0" points="253.1,86.1 253.1,79.9 199.2,111.1 145.2,79.9 145.2,106.7 145.2,106.7 145.2,112.9 199.2,144.1 
	253.1,112.9 253.1,86.1 "/>
<polygon class="st1" points="199.2,6.6 118.4,53.3 128.6,59.2 128.6,97.1 135.6,101.1 135.6,63.3 199.2,100 279.9,53.3 "/>
<g>
	<path class="st2" d="M166.2,55.3c-5.2-3-7.8-3.2-9.6-2.1c-1.8,1.1-1.4,2.6,2.7,5l3.7,2.2l-5.5,3.2l-3.1-1.8
		c-9.3-5.4-11.6-10.1-5.9-13.4c5.7-3.3,13.9-1.9,23.2,3.4l1.5,0.9c6.2,3.6,8.8,6.6,7.9,9.2c4.9-0.5,10.3,1.3,16.2,4.7l4.6,2.6
		c9.3,5.4,11.6,10.1,6,13.4c-5.7,3.3-13.9,1.9-23.2-3.5l-4.8-2.8l5.5-3.2l5.4,3.1c4.1,2.4,6.9,2.6,8.7,1.6c1.8-1.1,1.6-2.5-3.6-5.5
		l-4.6-2.6c-5.4-3.1-8.5-3.6-11.2-2.1l-1.9,1.1l-8.3-4.8l2.3-1.3c2.2-1.2,2-2.9-2.7-5.6L166.2,55.3z"/>
	<path class="st2" d="M215.8,67.1l8.8,5.1l-5.6,3.2l-8.8-5.1L215.8,67.1z"/>
	<path class="st2" d="M219.5,53.3l-28.7-28.7l6.3-3.6l39.1,22.6L239,42l8.3,4.8l-2.7,1.6l10.5,6.1l-5.7,3.3l-10.5-6.1l-11.1,6.4
		L219.5,53.3z M230.6,46.9l-21.8-12.6l16,15.9L230.6,46.9z"/>
	<polygon class="st2" points="175.5,37.5 175.5,37.5 174,42.8 173.6,44.2 180.7,48.4 182.5,42.5 229.1,69.5 234.9,66.2 187,38.5 
		177,32.7 	"/>
</g>
<polygon class="st3" points="253.1,100.9 199.2,132 145.2,100.9 145.2,104.5 199.2,135.7 253.1,104.5 "/>
<polygon class="st3" points="253.1,89.5 199.2,120.7 145.2,89.5 145.2,93.1 199.2,124.3 253.1,93.1 "/>
<g>
	<path class="st0" d="M184.9,176.4c-2.4-0.9-5.3-1.5-8.6-1.7V171h-9.1v3.6c-3.2,0.2-6,0.8-8.4,1.7c-3.3,1.2-5.7,3-7.4,5.3
		c-1.7,2.3-2.5,5.2-2.5,8.5c0,3.3,0.8,6.1,2.5,8.5c1.7,2.3,4.1,4.1,7.3,5.3c2.4,0.9,5.2,1.5,8.5,1.7v3.9h9.1v-3.9
		c3.4-0.2,6.4-0.8,8.9-1.7c3.1-1.2,5.5-3,7.1-5.3c1.6-2.3,2.4-5.1,2.4-8.4c0-3.3-0.8-6.1-2.5-8.5
		C190.5,179.4,188.1,177.6,184.9,176.4z M167.2,197.9c-1-0.1-2-0.3-2.8-0.5c-1.9-0.5-3.4-1.4-4.4-2.6c-1-1.2-1.5-2.7-1.5-4.6
		c0-1.9,0.5-3.4,1.4-4.6c0.9-1.2,2.3-2,4.2-2.5c0.9-0.3,1.9-0.4,3.1-0.6V197.9z M183.7,194.7c-0.9,1.2-2.2,2-4.1,2.6
		c-1,0.3-2,0.5-3.3,0.7v-15.5c1.2,0.1,2.3,0.3,3.2,0.6c1.8,0.6,3.2,1.4,4.1,2.5c0.9,1.1,1.4,2.6,1.4,4.5
		C185,192,184.5,193.5,183.7,194.7z"/>
	<polygon class="st0" points="210.9,193.4 210.9,172.7 201.1,172.7 201.1,207.9 210.5,207.9 224.9,187.3 224.9,207.9 234.8,207.9 
		234.8,172.7 225.4,172.7 	"/>
	<path class="st0" d="M270.1,193.2c-1-1.4-2.3-2.5-4-3.3c-0.3-0.1-0.5-0.2-0.8-0.3c1.4-0.7,2.6-1.7,3.5-3c0.9-1.3,1.4-2.8,1.4-4.5
		c0-1.9-0.6-3.6-1.8-5c-1.2-1.4-2.8-2.5-4.8-3.4c-2-0.9-4.3-1.4-6.7-1.6c-2.5-0.2-5-0.1-7.6,0.3c-2.6,0.4-5.1,1.2-7.5,2.4l2.9,7.4
		c1.3-0.7,2.7-1.3,4.2-1.7c1.4-0.4,2.8-0.7,4.2-0.7c1.3-0.1,2.5,0,3.6,0.2c1.1,0.2,1.9,0.6,2.6,1.1c0.6,0.5,1,1.2,1,2.1
		c0,0.9-0.4,1.6-1.1,2.2c-0.7,0.5-1.8,0.8-3.1,0.8h-8.2v7.3h9c1.4,0,2.6,0.2,3.5,0.7s1.3,1.3,1.3,2.3c0,1-0.4,1.8-1.1,2.4
		c-0.7,0.6-1.7,1-3,1.3c-1.3,0.3-2.7,0.4-4.2,0.3c-1.5-0.1-3.1-0.3-4.8-0.7c-1.6-0.4-3.2-1-4.7-1.8l-3,7c2.2,1.1,4.5,1.9,6.9,2.5
		c2.4,0.6,4.7,0.9,7,0.9c2.3,0,4.5-0.2,6.5-0.7c2-0.5,3.8-1.1,5.4-2c1.6-0.9,2.8-2,3.7-3.3c0.9-1.3,1.3-2.8,1.3-4.6
		C271.6,196.2,271.1,194.6,270.1,193.2z"/>
</g>
<g>
	<path class="st1" d="M79.8,198.7h6.1c3.2,0,6-0.5,8.3-1.6c2.3-1.1,4.1-2.6,5.4-4.5c1.3-1.9,1.9-4.2,1.9-6.9c0-2.7-0.6-5-1.9-7
		c-1.3-2-3.1-3.5-5.4-4.5c-2.3-1-5.1-1.6-8.3-1.6H69.9v35.2h10V198.7z M79.8,180.5h5.5c2.1,0,3.6,0.5,4.7,1.4c1,0.9,1.5,2.2,1.5,3.8
		c0,1.6-0.5,2.9-1.5,3.8c-1,0.9-2.6,1.4-4.7,1.4h-5.5V180.5z"/>
	<path class="st1" d="M111.1,203.4c1.8,1.7,3.8,2.9,6.2,3.8c2.4,0.9,5,1.4,7.8,1.4c2.8,0,5.5-0.5,7.8-1.4c2.4-0.9,4.4-2.2,6.2-3.8
		c1.7-1.6,3.1-3.6,4.1-5.8c1-2.2,1.5-4.7,1.5-7.3c0-2.6-0.5-5.1-1.5-7.3c-1-2.2-2.4-4.1-4.1-5.8c-1.7-1.7-3.8-2.9-6.2-3.8
		c-2.4-0.9-5-1.4-7.8-1.4c-2.8,0-5.4,0.5-7.8,1.4c-2.4,0.9-4.5,2.2-6.2,3.8c-1.8,1.7-3.1,3.6-4.1,5.8c-1,2.2-1.5,4.6-1.5,7.3
		c0,2.6,0.5,5.1,1.5,7.3C108,199.8,109.4,201.7,111.1,203.4z M116.3,186.1c0.5-1.2,1.2-2.3,2-3.2s1.9-1.6,3-2
		c1.2-0.5,2.4-0.7,3.7-0.7c1.3,0,2.6,0.2,3.7,0.7c1.2,0.5,2.2,1.1,3,2c0.9,0.9,1.5,1.9,2,3.2c0.5,1.2,0.7,2.6,0.7,4.1
		c0,1.5-0.2,2.9-0.7,4.1c-0.5,1.2-1.2,2.3-2,3.2c-0.9,0.9-1.9,1.6-3,2c-1.2,0.5-2.4,0.7-3.7,0.7c-1.3,0-2.6-0.2-3.7-0.7
		c-1.2-0.5-2.2-1.1-3-2s-1.5-2-2-3.2c-0.5-1.2-0.7-2.6-0.7-4.1C115.6,188.8,115.9,187.4,116.3,186.1z"/>
	<path class="st1" d="M25.3,217.7l6.4-49.6h2.2h7.6c-0.5,3.7-1.2,7.1-1.4,10.5c-0.5,6.8-1.4,13.6-1.1,20.4c0.3,7,5.1,10,12.6,8.5
		c6.2-1.3,10.5-8,10.2-15.6h-1.6c-0.2,2.5-2.1,8.4-5.3,7.7c-2.3-0.5-3.1-2.5-3.3-3.9c0-0.2-0.1-0.4-0.1-0.6
		c-1.2-7.7,0.5-27.2,0.5-27.2h12.2v-12.6H22.3c-0.3,0-0.6,0-0.9,0c-2.8,0-5.2,0.9-7.3,2.9c-3.9,3.9-6,8.6-7.3,14H9
		c0.6-1,1.3-1.7,2-2.3c0.2-0.2,0.5-0.4,0.7-0.5c1.4-0.9,3.1-1.3,4.8-1.3h5.2l-7.7,59.5h10.1l0-0.1h210.7v-9.8H25.3z"/>
</g>
<g>
	<path class="st1" d="M339.8,172.7l-15.5,35.2h10.2l2.7-6.8h14.9l2.7,6.8h10.4l-15.6-35.2H339.8z M340.2,193.7l4.5-11.3l4.5,11.3
		H340.2z"/>
	<polygon class="st1" points="241.6,153.1 241.6,162.9 371,162.9 371,207.9 380.8,207.9 380.8,162.9 391.6,162.9 391.6,153.1 	"/>
	<polygon class="st1" points="298.7,193 286.3,172.7 278.1,172.7 278.1,207.9 287.3,207.9 287.3,189.7 296.3,204.4 300.8,204.4 
		309.8,189.2 309.9,207.9 319,207.9 319,172.7 310.8,172.7 	"/>
</g>
</svg>
